<?xml version="1.0"?>
<svg xmlns="http://www.w3.org/2000/svg" xmlns:xlink="http://www.w3.org/1999/xlink" version="1.1" id="Capa_1" x="0px" y="0px" viewBox="0 0 496 496" style="enable-background:new 0 0 496 496;" xml:space="preserve" width="512px" height="512px" class="hovered-paths"><g><g>
	<g>
		<path d="M488,288h-8v-24c0-4.8-3.2-8-8-8h-24V8c0-4.8-3.2-8-8-8H216c-4.8,0-8,3.2-8,8v248H24c-4.8,0-8,3.2-8,8v24H8    c-4.8,0-8,3.2-8,8v192c0,4.8,3.2,8,8,8h480c4.8,0,8-3.2,8-8V296C496,291.2,492.8,288,488,288z M448,272h16v16h-16V272z M224,16    h208v272h-16V72c0-4.8-3.2-8-8-8c-13.6,0-24-10.4-24-24c0-4.8-3.2-8-8-8h-96c-4.8,0-8,3.2-8,8c0,13.6-10.4,24-24,24    c-4.8,0-8,3.2-8,8v216h-16V16z M400,79.2V288h0H256V79.2C272,76,284,64,287.2,48h81.6C372,64,384,76,400,79.2z M32,272h176v16H32    V272z M480,480H16V304h464V480z" data-original="#000000" class="hovered-path active-path" data-old_color="#ffffff" fill="#ffffff"/>
	</g>
</g><g>
	<g>
		<path d="M456,352H264c-4.8,0-8,3.2-8,8v96c0,4.8,3.2,8,8,8h192c4.8,0,8-3.2,8-8v-96C464,355.2,460.8,352,456,352z M448,448H272    v-16h176V448z M448,416H272v-48h176V416z" data-original="#000000" class="hovered-path active-path" data-old_color="#ffffff" fill="#ffffff"/>
	</g>
</g><g>
	<g>
		<path d="M232,352h-8v-8c0-13.6-10.4-24-24-24H72c-13.6,0-24,10.4-24,24v8h-8c-4.8,0-8,3.2-8,8v96c0,4.8,3.2,8,8,8h192    c4.8,0,8-3.2,8-8v-96C240,355.2,236.8,352,232,352z M64,344c0-4.8,3.2-8,8-8h128c4.8,0,8,3.2,8,8v8H64V344z M224,448H48v-16h176    V448z M224,416H48v-48h176V416z" data-original="#000000" class="hovered-path active-path" data-old_color="#ffffff" fill="#ffffff"/>
	</g>
</g><g>
	<g>
		<path d="M368,232c0-13.6-10.4-24-24-24c-13.6,0-24,10.4-24,24v16c0,4.8-3.2,8-8,8s-8-3.2-8-8v-32h-16v16h-16v16h16    c0,13.6,10.4,24,24,24c13.6,0,24-10.4,24-24v-16c0-4.8,3.2-8,8-8s8,3.2,8,8v32h16v-16h16v-16H368z" data-original="#000000" class="hovered-path active-path" data-old_color="#ffffff" fill="#ffffff"/>
	</g>
</g><g>
	<g>
		<rect x="240" y="32" width="16" height="16" data-original="#000000" class="hovered-path active-path" data-old_color="#ffffff" fill="#ffffff"/>
	</g>
</g><g>
	<g>
		<rect x="400" y="32" width="16" height="16" data-original="#000000" class="hovered-path active-path" data-old_color="#ffffff" fill="#ffffff"/>
	</g>
</g><g>
	<g>
		<path d="M328,80c-17.6,0-32,14.4-32,32s14.4,32,32,32c17.6,0,32-14.4,32-32C360,94.4,345.6,80,328,80z M328,128    c-8.8,0-16-7.2-16-16s7.2-16,16-16s16,7.2,16,16S336.8,128,328,128z" data-original="#000000" class="hovered-path active-path" data-old_color="#ffffff" fill="#ffffff"/>
	</g>
</g></g> </svg>
