<?xml version="1.0"?>
<svg xmlns="http://www.w3.org/2000/svg" xmlns:xlink="http://www.w3.org/1999/xlink" version="1.1" id="Capa_1" x="0px" y="0px" viewBox="0 0 480 480" style="enable-background:new 0 0 480 480;" xml:space="preserve" width="512px" height="512px" class=""><g><g>
	<g>
		<path d="M464,4v88H16V4H0v96c0,4.416,3.576,8,8,8h464c4.424,0,8-3.584,8-8V4H464z" data-original="#000000" class="active-path" data-old_color="#ffffff" fill="#ffffff"/>
	</g>
</g><g>
	<g>
		<path d="M80,28H48c-4.424,0-8,3.584-8,8v32c0,4.416,3.576,8,8,8h32c4.424,0,8-3.584,8-8V36C88,31.584,84.424,28,80,28z M72,60H56    V44h16V60z" data-original="#000000" class="active-path" data-old_color="#ffffff" fill="#ffffff"/>
	</g>
</g><g>
	<g>
		<path d="M152,28h-32c-4.424,0-8,3.584-8,8v32c0,4.416,3.576,8,8,8h32c4.424,0,8-3.584,8-8V36C160,31.584,156.424,28,152,28z     M144,60h-16V44h16V60z" data-original="#000000" class="active-path" data-old_color="#ffffff" fill="#ffffff"/>
	</g>
</g><g>
	<g>
		<path d="M224,28h-32c-4.424,0-8,3.584-8,8v32c0,4.416,3.576,8,8,8h32c4.424,0,8-3.584,8-8V36C232,31.584,228.424,28,224,28z     M216,60h-16V44h16V60z" data-original="#000000" class="active-path" data-old_color="#ffffff" fill="#ffffff"/>
	</g>
</g><g>
	<g>
		<path d="M432,28h-64c-4.424,0-8,3.584-8,8v32c0,4.416,3.576,8,8,8h64c4.424,0,8-3.584,8-8V36C440,31.584,436.424,28,432,28z     M424,60h-48V44h48V60z" data-original="#000000" class="active-path" data-old_color="#ffffff" fill="#ffffff"/>
	</g>
</g><g>
	<g>
		<path d="M296,28h-32c-4.424,0-8,3.584-8,8v32c0,4.416,3.576,8,8,8h32c4.424,0,8-3.584,8-8V36C304,31.584,300.424,28,296,28z     M288,60h-16V44h16V60z" data-original="#000000" class="active-path" data-old_color="#ffffff" fill="#ffffff"/>
	</g>
</g><g>
	<g>
		<path d="M260.8,253.6l-28.024-21.024c1.28-2.704,4.04-4.576,7.224-4.576c4.416,0,8,3.592,8,8h16c0-10.416-6.712-19.216-16-22.528    V196h-16v17.472c-9.288,3.312-16,12.112-16,22.528c0,2.52,1.184,4.888,3.2,6.4l28.024,21.024c-1.28,2.704-4.04,4.576-7.224,4.576    c-4.416,0-8-3.592-8-8h-16c0,10.416,6.712,19.216,16,22.528V300h16v-17.472c9.288-3.312,16-12.112,16-22.528    C264,257.48,262.816,255.112,260.8,253.6z" data-original="#000000" class="active-path" data-old_color="#ffffff" fill="#ffffff"/>
	</g>
</g><g>
	<g>
		<path d="M424,132H56c-30.872,0-56,25.12-56,56s25.128,56,56,56v41.136V324v33.136V396v33.136V468c0,4.416,3.576,8,8,8h38.864    h274.264H416c4.424,0,8-3.584,8-8v-38.864V396v-38.864V324v-38.864V244c30.872,0,56-25.12,56-56S454.872,132,424,132z M72,460v-24    c13.232,0,24,10.768,24,24H72z M408,460h-24c0-13.232,10.768-24,24-24V460z M408,420c-22.056,0-40,17.944-40,40H112    c0-22.056-17.944-40-40-40v-16h30.864H216c0,10.416,6.712,19.216,16,22.528V444h16v-17.472c9.288-3.312,16-12.112,16-22.528    h113.136H408V420z M72,388v-24c13.232,0,24,10.768,24,24H72z M232,404h10.672l4.56,3.424C245.944,410.128,243.184,412,240,412    C235.584,412,232,408.408,232,404z M408,388h-24c0-13.232,10.768-24,24-24V388z M408,348c-22.056,0-40,17.944-40,40H112    c0-22.056-17.944-40-40-40v-16h30.864H216c0,10.416,6.712,19.216,16,22.528V372h16v-17.472c9.288-3.312,16-12.112,16-22.528    h113.136H408V348z M72,316v-24c13.232,0,24,10.768,24,24H72z M232,332h10.672l4.56,3.424C245.944,338.128,243.184,340,240,340    C235.584,340,232,336.408,232,332z M408,316h-24c0-13.232,10.768-24,24-24V316z M408,236v40c-22.056,0-40,17.944-40,40H112    c0-22.056-17.944-40-40-40v-40v-16c22.056,0,40-17.944,40-40h256c0,22.056,17.944,40,40,40V236z M72,204v-24h24    C96,193.232,85.232,204,72,204z M408,204c-13.232,0-24-10.768-24-24h24V204z M424,228v-17.136V172c0-4.416-3.576-8-8-8h-38.864    H102.864H64c-4.424,0-8,3.584-8,8v38.864V228c-22.056,0-40-17.944-40-40c0-22.056,17.944-40,40-40h368c22.056,0,40,17.944,40,40    C464,210.056,446.056,228,424,228z" data-original="#000000" class="active-path" data-old_color="#ffffff" fill="#ffffff"/>
	</g>
</g></g> </svg>
